# This file uses centimeters as units for non-parametric coordinates.

mtllib arrow.mtl
v -0.182674 0.938542 -0.176366
v 0.182674 0.938542 -0.176366
v -0.178796 0.549936 -0.172622
v 0.178796 0.549936 -0.172622
v -0.178796 0.370721 -0.172622
v 0.178796 0.370721 -0.172622
v 0.000000 -0.017885 0.000000
v -0.178796 0.370721 0.172622
v 0.178796 0.370721 0.172622
v -0.178796 0.549936 0.172622
v 0.178796 0.549936 0.172622
v -0.182674 0.938542 0.176366
v 0.182674 0.938542 0.176366
vt 0.375000 0.000000
vt 0.625000 0.000000
vt 0.625000 0.083333
vt 0.375000 0.083333
vt 0.625000 0.166667
vt 0.375000 0.166667
vt 0.500000 0.333333
vt 0.625000 0.583333
vt 0.375000 0.583333
vt 0.625000 0.666667
vt 0.375000 0.666667
vt 0.625000 0.750000
vt 0.375000 0.750000
vt 0.625000 1.000000
vt 0.375000 1.000000
vt 0.875000 0.000000
vt 0.875000 0.083333
vt 0.875000 0.166667
vt 0.125000 0.000000
vt 0.125000 0.083333
vt 0.125000 0.166667
vn 0.000000 -0.009634 -0.999954
vn 0.000000 -0.009634 -0.999954
vn 0.000000 -0.009634 -0.999954
vn 0.000000 -0.009634 -0.999954
vn 0.000000 0.000000 -1.000000
vn 0.000000 0.000000 -1.000000
vn 0.000000 0.000000 -1.000000
vn 0.000000 0.000000 -1.000000
vn 0.000000 -0.405958 -0.913892
vn 0.000000 -0.405958 -0.913892
vn 0.000000 -0.405958 -0.913892
vn 0.000000 -0.405958 0.913892
vn 0.000000 -0.405958 0.913892
vn 0.000000 -0.405958 0.913892
vn 0.000000 0.000000 1.000000
vn 0.000000 0.000000 1.000000
vn 0.000000 0.000000 1.000000
vn 0.000000 0.000000 1.000000
vn 0.000000 -0.009634 0.999954
vn 0.000000 -0.009634 0.999954
vn 0.000000 -0.009634 0.999954
vn 0.000000 -0.009634 0.999954
vn 0.000000 1.000000 0.000000
vn 0.000000 1.000000 0.000000
vn 0.000000 1.000000 0.000000
vn 0.000000 1.000000 0.000000
vn 0.999950 -0.009979 0.000000
vn 0.999950 -0.009979 0.000000
vn 0.999950 -0.009979 0.000000
vn 0.999950 -0.009979 0.000000
vn 1.000000 0.000000 0.000000
vn 1.000000 0.000000 0.000000
vn 1.000000 0.000000 0.000000
vn 1.000000 0.000000 0.000000
vn 0.908457 -0.417977 0.000000
vn 0.908457 -0.417977 0.000000
vn 0.908457 -0.417977 0.000000
vn -0.999950 -0.009979 0.000000
vn -0.999950 -0.009979 0.000000
vn -0.999950 -0.009979 0.000000
vn -0.999950 -0.009979 0.000000
vn -1.000000 0.000000 0.000000
vn -1.000000 0.000000 0.000000
vn -1.000000 0.000000 0.000000
vn -1.000000 0.000000 0.000000
vn -0.908457 -0.417977 0.000000
vn -0.908457 -0.417977 0.000000
vn -0.908457 -0.417977 0.000000
usemtl initialShadingGroup
f 1/1/1 2/2/2 3/4/3
f 3/4/3 2/2/2 4/3/4
f 3/4/5 4/3/6 5/6/7
f 5/6/7 4/3/6 6/5/8
f 5/6/9 6/5/10 7/7/11
f 7/7/12 9/8/13 8/9/14
f 8/9/15 9/8/16 10/11/17
f 10/11/17 9/8/16 11/10/18
f 10/11/19 11/10/20 12/13/21
f 12/13/21 11/10/20 13/12/22
f 12/13/23 13/12/24 1/15/25
f 1/15/25 13/12/24 2/14/26
f 2/2/27 13/16/28 4/3/29
f 4/3/29 13/16/28 11/17/30
f 4/3/31 11/17/32 6/5/33
f 6/5/33 11/17/32 9/18/34
f 6/5/35 9/18/36 7/7/37
f 12/19/38 1/1/39 10/20/40
f 10/20/40 1/1/39 3/4/41
f 10/20/42 3/4/43 8/21/44
f 8/21/44 3/4/43 5/6/45
f 8/21/46 5/6/47 7/7/48
